<mxfile host="app.diagrams.net" modified="2023-09-29T02:29:43.954Z" agent="Mozilla/5.0 (Macintosh; Intel Mac OS X 10.15; rv:109.0) Gecko/20100101 Firefox/118.0" etag="oT9ddXeDo_JrivgoFgXu" version="21.8.2" type="github">
  <diagram name="PÃ¡gina-1" id="Kss8Y6qTOmSQIYoSBznI">
    <mxGraphModel dx="1098" dy="696" grid="1" gridSize="10" guides="1" tooltips="1" connect="1" arrows="1" fold="1" page="1" pageScale="1" pageWidth="827" pageHeight="1169" math="0" shadow="0">
      <root>
        <mxCell id="0" />
        <mxCell id="1" parent="0" />
        <mxCell id="6Rvpr4Aw8WOLAFPru28n-1" value="hace" style="rhombus;whiteSpace=wrap;html=1;" vertex="1" parent="1">
          <mxGeometry x="330" y="90" width="100" height="80" as="geometry" />
        </mxCell>
        <mxCell id="6Rvpr4Aw8WOLAFPru28n-2" style="edgeStyle=none;rounded=0;orthogonalLoop=1;jettySize=auto;html=1;exitX=1;exitY=0.5;exitDx=0;exitDy=0;entryX=0;entryY=0.5;entryDx=0;entryDy=0;endArrow=none;endFill=0;" edge="1" parent="1" source="6Rvpr4Aw8WOLAFPru28n-4" target="6Rvpr4Aw8WOLAFPru28n-1">
          <mxGeometry relative="1" as="geometry" />
        </mxCell>
        <mxCell id="6Rvpr4Aw8WOLAFPru28n-3" style="edgeStyle=orthogonalEdgeStyle;rounded=0;orthogonalLoop=1;jettySize=auto;html=1;exitX=0.5;exitY=0;exitDx=0;exitDy=0;entryX=0.5;entryY=0;entryDx=0;entryDy=0;" edge="1" parent="1" source="6Rvpr4Aw8WOLAFPru28n-4" target="6Rvpr4Aw8WOLAFPru28n-91">
          <mxGeometry relative="1" as="geometry">
            <mxPoint x="245" y="55" as="targetPoint" />
          </mxGeometry>
        </mxCell>
        <mxCell id="6Rvpr4Aw8WOLAFPru28n-4" value="Pasciente" style="rounded=1;whiteSpace=wrap;html=1;" vertex="1" parent="1">
          <mxGeometry x="160" y="100" width="120" height="60" as="geometry" />
        </mxCell>
        <mxCell id="6Rvpr4Aw8WOLAFPru28n-5" style="edgeStyle=none;rounded=0;orthogonalLoop=1;jettySize=auto;html=1;exitX=0;exitY=0.5;exitDx=0;exitDy=0;entryX=1;entryY=0.5;entryDx=0;entryDy=0;endArrow=none;endFill=0;" edge="1" parent="1" source="6Rvpr4Aw8WOLAFPru28n-6" target="6Rvpr4Aw8WOLAFPru28n-1">
          <mxGeometry relative="1" as="geometry" />
        </mxCell>
        <mxCell id="6Rvpr4Aw8WOLAFPru28n-6" value="Consulta" style="rounded=1;whiteSpace=wrap;html=1;" vertex="1" parent="1">
          <mxGeometry x="480" y="100" width="120" height="60" as="geometry" />
        </mxCell>
        <mxCell id="6Rvpr4Aw8WOLAFPru28n-7" value="1:N" style="text;html=1;align=center;verticalAlign=middle;resizable=0;points=[];autosize=1;strokeColor=none;fillColor=none;" vertex="1" parent="1">
          <mxGeometry x="360" y="60.00000000000006" width="40" height="30" as="geometry" />
        </mxCell>
        <mxCell id="6Rvpr4Aw8WOLAFPru28n-12" style="edgeStyle=orthogonalEdgeStyle;rounded=0;orthogonalLoop=1;jettySize=auto;html=1;entryX=0.5;entryY=0;entryDx=0;entryDy=0;endArrow=none;endFill=0;" edge="1" parent="1" source="6Rvpr4Aw8WOLAFPru28n-13" target="6Rvpr4Aw8WOLAFPru28n-15">
          <mxGeometry relative="1" as="geometry" />
        </mxCell>
        <mxCell id="6Rvpr4Aw8WOLAFPru28n-13" value="asociada" style="rhombus;whiteSpace=wrap;html=1;" vertex="1" parent="1">
          <mxGeometry x="490" y="200.00000000000023" width="100" height="80" as="geometry" />
        </mxCell>
        <mxCell id="6Rvpr4Aw8WOLAFPru28n-14" style="edgeStyle=orthogonalEdgeStyle;rounded=0;orthogonalLoop=1;jettySize=auto;html=1;entryX=0.5;entryY=0;entryDx=0;entryDy=0;endArrow=none;endFill=0;" edge="1" parent="1" target="6Rvpr4Aw8WOLAFPru28n-13">
          <mxGeometry relative="1" as="geometry">
            <mxPoint x="540.04" y="160.48000000000002" as="sourcePoint" />
          </mxGeometry>
        </mxCell>
        <mxCell id="6Rvpr4Aw8WOLAFPru28n-15" value="Especialidad" style="rounded=1;whiteSpace=wrap;html=1;" vertex="1" parent="1">
          <mxGeometry x="480" y="315.0000000000002" width="120" height="60" as="geometry" />
        </mxCell>
        <mxCell id="6Rvpr4Aw8WOLAFPru28n-16" value="&lt;div&gt;N&lt;br&gt;&lt;/div&gt;&lt;div&gt;:&lt;/div&gt;&lt;div&gt;1&lt;br&gt;&lt;/div&gt;" style="text;html=1;align=center;verticalAlign=middle;resizable=0;points=[];autosize=1;strokeColor=none;fillColor=none;" vertex="1" parent="1">
          <mxGeometry x="590" y="210.00000000000023" width="30" height="60" as="geometry" />
        </mxCell>
        <mxCell id="6Rvpr4Aw8WOLAFPru28n-17" value="N" style="text;html=1;align=center;verticalAlign=middle;resizable=0;points=[];autosize=1;strokeColor=none;fillColor=none;" vertex="1" parent="1">
          <mxGeometry x="540" y="160.00000000000023" width="30" height="30" as="geometry" />
        </mxCell>
        <mxCell id="6Rvpr4Aw8WOLAFPru28n-18" value="1" style="text;html=1;align=center;verticalAlign=middle;resizable=0;points=[];autosize=1;strokeColor=none;fillColor=none;" vertex="1" parent="1">
          <mxGeometry x="510" y="160.00000000000023" width="30" height="30" as="geometry" />
        </mxCell>
        <mxCell id="6Rvpr4Aw8WOLAFPru28n-21" value="tiene" style="rhombus;whiteSpace=wrap;html=1;" vertex="1" parent="1">
          <mxGeometry x="330" y="305" width="100" height="80" as="geometry" />
        </mxCell>
        <mxCell id="6Rvpr4Aw8WOLAFPru28n-22" style="edgeStyle=none;rounded=0;orthogonalLoop=1;jettySize=auto;html=1;endArrow=none;endFill=0;entryX=0;entryY=0.5;entryDx=0;entryDy=0;" edge="1" parent="1" source="6Rvpr4Aw8WOLAFPru28n-29" target="6Rvpr4Aw8WOLAFPru28n-21">
          <mxGeometry relative="1" as="geometry">
            <mxPoint x="195" y="350" as="sourcePoint" />
            <mxPoint x="240" y="350" as="targetPoint" />
          </mxGeometry>
        </mxCell>
        <mxCell id="6Rvpr4Aw8WOLAFPru28n-23" style="edgeStyle=none;rounded=0;orthogonalLoop=1;jettySize=auto;html=1;entryX=1;entryY=0.5;entryDx=0;entryDy=0;endArrow=none;endFill=0;" edge="1" parent="1" target="6Rvpr4Aw8WOLAFPru28n-21" source="6Rvpr4Aw8WOLAFPru28n-15">
          <mxGeometry relative="1" as="geometry">
            <mxPoint x="480" y="350" as="sourcePoint" />
          </mxGeometry>
        </mxCell>
        <mxCell id="6Rvpr4Aw8WOLAFPru28n-24" value="N:1" style="text;html=1;align=center;verticalAlign=middle;resizable=0;points=[];autosize=1;strokeColor=none;fillColor=none;" vertex="1" parent="1">
          <mxGeometry x="360" y="280" width="40" height="30" as="geometry" />
        </mxCell>
        <mxCell id="6Rvpr4Aw8WOLAFPru28n-29" value="Medico" style="rounded=1;whiteSpace=wrap;html=1;" vertex="1" parent="1">
          <mxGeometry x="160" y="315.0000000000002" width="120" height="60" as="geometry" />
        </mxCell>
        <mxCell id="6Rvpr4Aw8WOLAFPru28n-33" style="rounded=0;orthogonalLoop=1;jettySize=auto;html=1;entryX=0.457;entryY=1.007;entryDx=0;entryDy=0;entryPerimeter=0;endArrow=none;endFill=0;" edge="1" parent="1" source="6Rvpr4Aw8WOLAFPru28n-34">
          <mxGeometry relative="1" as="geometry">
            <mxPoint x="196.08999999999992" y="160.42000000000007" as="targetPoint" />
          </mxGeometry>
        </mxCell>
        <mxCell id="6Rvpr4Aw8WOLAFPru28n-34" value="" style="ellipse;whiteSpace=wrap;html=1;aspect=fixed;fillColor=#000;" vertex="1" parent="1">
          <mxGeometry x="191.25" y="180" width="10" height="10" as="geometry" />
        </mxCell>
        <mxCell id="6Rvpr4Aw8WOLAFPru28n-35" value="ci_pac" style="text;html=1;align=center;verticalAlign=middle;resizable=0;points=[];autosize=1;strokeColor=none;fillColor=none;rotation=-90;" vertex="1" parent="1">
          <mxGeometry x="166.25" y="200" width="60" height="30" as="geometry" />
        </mxCell>
        <mxCell id="6Rvpr4Aw8WOLAFPru28n-36" value="" style="ellipse;whiteSpace=wrap;html=1;aspect=fixed;" vertex="1" parent="1">
          <mxGeometry x="130" y="105" width="10" height="10" as="geometry" />
        </mxCell>
        <mxCell id="6Rvpr4Aw8WOLAFPru28n-37" style="edgeStyle=orthogonalEdgeStyle;rounded=0;orthogonalLoop=1;jettySize=auto;html=1;entryX=-0.008;entryY=0.419;entryDx=0;entryDy=0;entryPerimeter=0;endArrow=none;endFill=0;" edge="1" parent="1" source="6Rvpr4Aw8WOLAFPru28n-38">
          <mxGeometry relative="1" as="geometry">
            <mxPoint x="159" y="130" as="targetPoint" />
          </mxGeometry>
        </mxCell>
        <mxCell id="6Rvpr4Aw8WOLAFPru28n-38" value="" style="ellipse;whiteSpace=wrap;html=1;aspect=fixed;" vertex="1" parent="1">
          <mxGeometry x="130" y="125" width="10" height="10" as="geometry" />
        </mxCell>
        <mxCell id="6Rvpr4Aw8WOLAFPru28n-39" style="edgeStyle=orthogonalEdgeStyle;rounded=0;orthogonalLoop=1;jettySize=auto;html=1;entryX=0;entryY=0.75;entryDx=0;entryDy=0;endArrow=none;endFill=0;" edge="1" parent="1" source="6Rvpr4Aw8WOLAFPru28n-40">
          <mxGeometry relative="1" as="geometry">
            <mxPoint x="160" y="150" as="targetPoint" />
          </mxGeometry>
        </mxCell>
        <mxCell id="6Rvpr4Aw8WOLAFPru28n-40" value="" style="ellipse;whiteSpace=wrap;html=1;aspect=fixed;" vertex="1" parent="1">
          <mxGeometry x="130" y="145" width="10" height="10" as="geometry" />
        </mxCell>
        <mxCell id="6Rvpr4Aw8WOLAFPru28n-41" value="nac" style="text;html=1;align=center;verticalAlign=middle;resizable=0;points=[];autosize=1;strokeColor=none;fillColor=none;" vertex="1" parent="1">
          <mxGeometry x="85" y="95" width="40" height="30" as="geometry" />
        </mxCell>
        <mxCell id="6Rvpr4Aw8WOLAFPru28n-42" value="ocupacion" style="text;html=1;align=center;verticalAlign=middle;resizable=0;points=[];autosize=1;strokeColor=none;fillColor=none;" vertex="1" parent="1">
          <mxGeometry x="50" y="115" width="80" height="30" as="geometry" />
        </mxCell>
        <mxCell id="6Rvpr4Aw8WOLAFPru28n-43" value="celular" style="text;html=1;align=center;verticalAlign=middle;resizable=0;points=[];autosize=1;strokeColor=none;fillColor=none;" vertex="1" parent="1">
          <mxGeometry x="70" y="135" width="60" height="30" as="geometry" />
        </mxCell>
        <mxCell id="6Rvpr4Aw8WOLAFPru28n-44" style="edgeStyle=orthogonalEdgeStyle;rounded=0;orthogonalLoop=1;jettySize=auto;html=1;exitX=0;exitY=0.5;exitDx=0;exitDy=0;entryX=1;entryY=0.085;entryDx=0;entryDy=0;entryPerimeter=0;endArrow=none;endFill=0;" edge="1" parent="1">
          <mxGeometry relative="1" as="geometry">
            <mxPoint x="160" y="110" as="sourcePoint" />
            <mxPoint x="140" y="110" as="targetPoint" />
          </mxGeometry>
        </mxCell>
        <mxCell id="6Rvpr4Aw8WOLAFPru28n-45" style="edgeStyle=orthogonalEdgeStyle;rounded=0;orthogonalLoop=1;jettySize=auto;html=1;entryX=0.125;entryY=1;entryDx=0;entryDy=0;entryPerimeter=0;endArrow=none;endFill=0;" edge="1" parent="1" source="6Rvpr4Aw8WOLAFPru28n-46">
          <mxGeometry relative="1" as="geometry">
            <mxPoint x="176.25" y="160" as="targetPoint" />
          </mxGeometry>
        </mxCell>
        <mxCell id="6Rvpr4Aw8WOLAFPru28n-46" value="" style="ellipse;whiteSpace=wrap;html=1;aspect=fixed;" vertex="1" parent="1">
          <mxGeometry x="171.25" y="180" width="10" height="10" as="geometry" />
        </mxCell>
        <mxCell id="6Rvpr4Aw8WOLAFPru28n-47" value="apellid_pac" style="text;html=1;align=center;verticalAlign=middle;resizable=0;points=[];autosize=1;strokeColor=none;fillColor=none;rotation=-90;" vertex="1" parent="1">
          <mxGeometry x="135" y="210" width="80" height="30" as="geometry" />
        </mxCell>
        <mxCell id="6Rvpr4Aw8WOLAFPru28n-49" style="rounded=0;orthogonalLoop=1;jettySize=auto;html=1;exitX=0.5;exitY=1;exitDx=0;exitDy=0;entryX=0.792;entryY=1.005;entryDx=0;entryDy=0;endArrow=none;endFill=0;entryPerimeter=0;" edge="1" parent="1" source="6Rvpr4Aw8WOLAFPru28n-50">
          <mxGeometry relative="1" as="geometry">
            <mxPoint x="240.03999999999996" y="160.30000000000007" as="targetPoint" />
          </mxGeometry>
        </mxCell>
        <mxCell id="6Rvpr4Aw8WOLAFPru28n-50" value="" style="ellipse;whiteSpace=wrap;html=1;aspect=fixed;" vertex="1" parent="1">
          <mxGeometry x="235" y="180" width="10" height="10" as="geometry" />
        </mxCell>
        <mxCell id="6Rvpr4Aw8WOLAFPru28n-51" value="&lt;div&gt;sexo&lt;/div&gt;" style="text;html=1;align=center;verticalAlign=middle;resizable=0;points=[];autosize=1;strokeColor=none;fillColor=none;rotation=-90;" vertex="1" parent="1">
          <mxGeometry x="215" y="200" width="50" height="30" as="geometry" />
        </mxCell>
        <mxCell id="6Rvpr4Aw8WOLAFPru28n-52" style="edgeStyle=orthogonalEdgeStyle;rounded=0;orthogonalLoop=1;jettySize=auto;html=1;exitX=0.5;exitY=1;exitDx=0;exitDy=0;entryX=0.5;entryY=0;entryDx=0;entryDy=0;endArrow=none;endFill=0;" edge="1" parent="1" source="6Rvpr4Aw8WOLAFPru28n-53">
          <mxGeometry relative="1" as="geometry">
            <mxPoint x="542.5" y="100" as="targetPoint" />
          </mxGeometry>
        </mxCell>
        <mxCell id="6Rvpr4Aw8WOLAFPru28n-53" value="" style="ellipse;whiteSpace=wrap;html=1;aspect=fixed;" vertex="1" parent="1">
          <mxGeometry x="537.5" y="70" width="10" height="10" as="geometry" />
        </mxCell>
        <mxCell id="6Rvpr4Aw8WOLAFPru28n-54" value="fecha" style="text;html=1;align=center;verticalAlign=middle;resizable=0;points=[];autosize=1;strokeColor=none;fillColor=none;" vertex="1" parent="1">
          <mxGeometry x="517.5" y="40" width="50" height="30" as="geometry" />
        </mxCell>
        <mxCell id="6Rvpr4Aw8WOLAFPru28n-55" style="edgeStyle=orthogonalEdgeStyle;rounded=0;orthogonalLoop=1;jettySize=auto;html=1;exitX=0.5;exitY=1;exitDx=0;exitDy=0;entryX=0.874;entryY=0;entryDx=0;entryDy=0;entryPerimeter=0;endArrow=none;endFill=0;" edge="1" parent="1" source="6Rvpr4Aw8WOLAFPru28n-56">
          <mxGeometry relative="1" as="geometry">
            <mxPoint x="587.5" y="100" as="targetPoint" />
          </mxGeometry>
        </mxCell>
        <mxCell id="6Rvpr4Aw8WOLAFPru28n-56" value="" style="ellipse;whiteSpace=wrap;html=1;aspect=fixed;" vertex="1" parent="1">
          <mxGeometry x="582.5" y="70" width="10" height="10" as="geometry" />
        </mxCell>
        <mxCell id="6Rvpr4Aw8WOLAFPru28n-57" value="costo" style="text;html=1;align=center;verticalAlign=middle;resizable=0;points=[];autosize=1;strokeColor=none;fillColor=none;" vertex="1" parent="1">
          <mxGeometry x="563.75" y="40" width="50" height="30" as="geometry" />
        </mxCell>
        <mxCell id="6Rvpr4Aw8WOLAFPru28n-58" style="rounded=0;orthogonalLoop=1;jettySize=auto;html=1;entryX=0.457;entryY=1.007;entryDx=0;entryDy=0;entryPerimeter=0;endArrow=none;endFill=0;" edge="1" parent="1" source="6Rvpr4Aw8WOLAFPru28n-59">
          <mxGeometry relative="1" as="geometry">
            <mxPoint x="563.75" y="375" as="targetPoint" />
          </mxGeometry>
        </mxCell>
        <mxCell id="6Rvpr4Aw8WOLAFPru28n-59" value="" style="ellipse;whiteSpace=wrap;html=1;aspect=fixed;fillColor=#FFFFFF;" vertex="1" parent="1">
          <mxGeometry x="558.75" y="395" width="10" height="10" as="geometry" />
        </mxCell>
        <mxCell id="6Rvpr4Aw8WOLAFPru28n-60" value="caracteristica" style="text;html=1;align=center;verticalAlign=middle;resizable=0;points=[];autosize=1;strokeColor=none;fillColor=none;rotation=-90;" vertex="1" parent="1">
          <mxGeometry x="518.75" y="445" width="90" height="30" as="geometry" />
        </mxCell>
        <mxCell id="6Rvpr4Aw8WOLAFPru28n-61" style="edgeStyle=orthogonalEdgeStyle;rounded=0;orthogonalLoop=1;jettySize=auto;html=1;entryX=0.125;entryY=1;entryDx=0;entryDy=0;entryPerimeter=0;endArrow=none;endFill=0;" edge="1" parent="1" source="6Rvpr4Aw8WOLAFPru28n-62">
          <mxGeometry relative="1" as="geometry">
            <mxPoint x="540" y="375" as="targetPoint" />
          </mxGeometry>
        </mxCell>
        <mxCell id="6Rvpr4Aw8WOLAFPru28n-62" value="" style="ellipse;whiteSpace=wrap;html=1;aspect=fixed;" vertex="1" parent="1">
          <mxGeometry x="535" y="395" width="10" height="10" as="geometry" />
        </mxCell>
        <mxCell id="6Rvpr4Aw8WOLAFPru28n-63" value="ubicacion" style="text;html=1;align=center;verticalAlign=middle;resizable=0;points=[];autosize=1;strokeColor=none;fillColor=none;rotation=-90;" vertex="1" parent="1">
          <mxGeometry x="505" y="435" width="70" height="30" as="geometry" />
        </mxCell>
        <mxCell id="6Rvpr4Aw8WOLAFPru28n-64" style="rounded=0;orthogonalLoop=1;jettySize=auto;html=1;exitX=0.5;exitY=1;exitDx=0;exitDy=0;entryX=0.792;entryY=1.005;entryDx=0;entryDy=0;endArrow=none;endFill=0;entryPerimeter=0;" edge="1" parent="1" source="6Rvpr4Aw8WOLAFPru28n-65">
          <mxGeometry relative="1" as="geometry">
            <mxPoint x="588.75" y="375" as="targetPoint" />
          </mxGeometry>
        </mxCell>
        <mxCell id="6Rvpr4Aw8WOLAFPru28n-65" value="" style="ellipse;whiteSpace=wrap;html=1;aspect=fixed;" vertex="1" parent="1">
          <mxGeometry x="583.75" y="395" width="10" height="10" as="geometry" />
        </mxCell>
        <mxCell id="6Rvpr4Aw8WOLAFPru28n-66" value="ubicacion" style="text;html=1;align=center;verticalAlign=middle;resizable=0;points=[];autosize=1;strokeColor=none;fillColor=none;rotation=-90;" vertex="1" parent="1">
          <mxGeometry x="553.75" y="435" width="70" height="30" as="geometry" />
        </mxCell>
        <mxCell id="6Rvpr4Aw8WOLAFPru28n-67" style="edgeStyle=orthogonalEdgeStyle;rounded=0;orthogonalLoop=1;jettySize=auto;html=1;entryX=0.125;entryY=1;entryDx=0;entryDy=0;entryPerimeter=0;endArrow=none;endFill=0;" edge="1" parent="1" source="6Rvpr4Aw8WOLAFPru28n-68">
          <mxGeometry relative="1" as="geometry">
            <mxPoint x="515" y="375" as="targetPoint" />
          </mxGeometry>
        </mxCell>
        <mxCell id="6Rvpr4Aw8WOLAFPru28n-68" value="" style="ellipse;whiteSpace=wrap;html=1;aspect=fixed;" vertex="1" parent="1">
          <mxGeometry x="510" y="395" width="10" height="10" as="geometry" />
        </mxCell>
        <mxCell id="6Rvpr4Aw8WOLAFPru28n-69" value="costo_esp" style="text;html=1;align=center;verticalAlign=middle;resizable=0;points=[];autosize=1;strokeColor=none;fillColor=none;rotation=-90;" vertex="1" parent="1">
          <mxGeometry x="475" y="435" width="80" height="30" as="geometry" />
        </mxCell>
        <mxCell id="6Rvpr4Aw8WOLAFPru28n-70" style="edgeStyle=orthogonalEdgeStyle;rounded=0;orthogonalLoop=1;jettySize=auto;html=1;entryX=0.125;entryY=1;entryDx=0;entryDy=0;entryPerimeter=0;endArrow=none;endFill=0;" edge="1" parent="1" source="6Rvpr4Aw8WOLAFPru28n-71">
          <mxGeometry relative="1" as="geometry">
            <mxPoint x="486.25" y="375" as="targetPoint" />
          </mxGeometry>
        </mxCell>
        <mxCell id="6Rvpr4Aw8WOLAFPru28n-71" value="" style="ellipse;whiteSpace=wrap;html=1;aspect=fixed;fillColor=#000000;" vertex="1" parent="1">
          <mxGeometry x="481.25" y="395" width="10" height="10" as="geometry" />
        </mxCell>
        <mxCell id="6Rvpr4Aw8WOLAFPru28n-72" value="&lt;div&gt;num_especialidad&lt;/div&gt;" style="text;html=1;align=center;verticalAlign=middle;resizable=0;points=[];autosize=1;strokeColor=none;fillColor=none;rotation=-90;" vertex="1" parent="1">
          <mxGeometry x="425" y="455" width="120" height="30" as="geometry" />
        </mxCell>
        <mxCell id="6Rvpr4Aw8WOLAFPru28n-73" style="rounded=0;orthogonalLoop=1;jettySize=auto;html=1;exitX=0.5;exitY=1;exitDx=0;exitDy=0;entryX=0.792;entryY=1.005;entryDx=0;entryDy=0;endArrow=none;endFill=0;entryPerimeter=0;" edge="1" parent="1" source="6Rvpr4Aw8WOLAFPru28n-74">
          <mxGeometry relative="1" as="geometry">
            <mxPoint x="220" y="160" as="targetPoint" />
          </mxGeometry>
        </mxCell>
        <mxCell id="6Rvpr4Aw8WOLAFPru28n-74" value="" style="ellipse;whiteSpace=wrap;html=1;aspect=fixed;" vertex="1" parent="1">
          <mxGeometry x="215" y="180" width="10" height="10" as="geometry" />
        </mxCell>
        <mxCell id="6Rvpr4Aw8WOLAFPru28n-75" value="nom_pac" style="text;html=1;align=center;verticalAlign=middle;resizable=0;points=[];autosize=1;strokeColor=none;fillColor=none;rotation=-90;" vertex="1" parent="1">
          <mxGeometry x="185" y="210" width="70" height="30" as="geometry" />
        </mxCell>
        <mxCell id="6Rvpr4Aw8WOLAFPru28n-76" style="edgeStyle=orthogonalEdgeStyle;rounded=0;orthogonalLoop=1;jettySize=auto;html=1;exitX=0.5;exitY=1;exitDx=0;exitDy=0;entryX=0.5;entryY=0;entryDx=0;entryDy=0;endArrow=none;endFill=0;" edge="1" parent="1" source="6Rvpr4Aw8WOLAFPru28n-77">
          <mxGeometry relative="1" as="geometry">
            <mxPoint x="498.75" y="100" as="targetPoint" />
          </mxGeometry>
        </mxCell>
        <mxCell id="6Rvpr4Aw8WOLAFPru28n-77" value="" style="ellipse;whiteSpace=wrap;html=1;aspect=fixed;" vertex="1" parent="1">
          <mxGeometry x="493.75" y="70" width="10" height="10" as="geometry" />
        </mxCell>
        <mxCell id="6Rvpr4Aw8WOLAFPru28n-78" value="hora" style="text;html=1;align=center;verticalAlign=middle;resizable=0;points=[];autosize=1;strokeColor=none;fillColor=none;" vertex="1" parent="1">
          <mxGeometry x="473.75" y="40" width="50" height="30" as="geometry" />
        </mxCell>
        <mxCell id="6Rvpr4Aw8WOLAFPru28n-79" value="" style="ellipse;whiteSpace=wrap;html=1;aspect=fixed;" vertex="1" parent="1">
          <mxGeometry x="130" y="320" width="10" height="10" as="geometry" />
        </mxCell>
        <mxCell id="6Rvpr4Aw8WOLAFPru28n-80" style="edgeStyle=orthogonalEdgeStyle;rounded=0;orthogonalLoop=1;jettySize=auto;html=1;entryX=-0.008;entryY=0.419;entryDx=0;entryDy=0;entryPerimeter=0;endArrow=none;endFill=0;" edge="1" parent="1" source="6Rvpr4Aw8WOLAFPru28n-81">
          <mxGeometry relative="1" as="geometry">
            <mxPoint x="159" y="345" as="targetPoint" />
          </mxGeometry>
        </mxCell>
        <mxCell id="6Rvpr4Aw8WOLAFPru28n-81" value="" style="ellipse;whiteSpace=wrap;html=1;aspect=fixed;" vertex="1" parent="1">
          <mxGeometry x="130" y="340" width="10" height="10" as="geometry" />
        </mxCell>
        <mxCell id="6Rvpr4Aw8WOLAFPru28n-82" style="edgeStyle=orthogonalEdgeStyle;rounded=0;orthogonalLoop=1;jettySize=auto;html=1;entryX=0;entryY=0.75;entryDx=0;entryDy=0;endArrow=none;endFill=0;" edge="1" parent="1" source="6Rvpr4Aw8WOLAFPru28n-83">
          <mxGeometry relative="1" as="geometry">
            <mxPoint x="160" y="365" as="targetPoint" />
          </mxGeometry>
        </mxCell>
        <mxCell id="6Rvpr4Aw8WOLAFPru28n-83" value="" style="ellipse;whiteSpace=wrap;html=1;aspect=fixed;" vertex="1" parent="1">
          <mxGeometry x="130" y="360" width="10" height="10" as="geometry" />
        </mxCell>
        <mxCell id="6Rvpr4Aw8WOLAFPru28n-84" value="fecha_nac" style="text;html=1;align=center;verticalAlign=middle;resizable=0;points=[];autosize=1;strokeColor=none;fillColor=none;" vertex="1" parent="1">
          <mxGeometry x="50" y="310" width="80" height="30" as="geometry" />
        </mxCell>
        <mxCell id="6Rvpr4Aw8WOLAFPru28n-85" value="nombre_med" style="text;html=1;align=center;verticalAlign=middle;resizable=0;points=[];autosize=1;strokeColor=none;fillColor=none;" vertex="1" parent="1">
          <mxGeometry x="40" y="330" width="90" height="30" as="geometry" />
        </mxCell>
        <mxCell id="6Rvpr4Aw8WOLAFPru28n-86" value="apelli_med" style="text;html=1;align=center;verticalAlign=middle;resizable=0;points=[];autosize=1;strokeColor=none;fillColor=none;" vertex="1" parent="1">
          <mxGeometry x="50" y="350" width="80" height="30" as="geometry" />
        </mxCell>
        <mxCell id="6Rvpr4Aw8WOLAFPru28n-87" style="edgeStyle=orthogonalEdgeStyle;rounded=0;orthogonalLoop=1;jettySize=auto;html=1;exitX=0;exitY=0.5;exitDx=0;exitDy=0;entryX=1;entryY=0.085;entryDx=0;entryDy=0;entryPerimeter=0;endArrow=none;endFill=0;" edge="1" parent="1">
          <mxGeometry relative="1" as="geometry">
            <mxPoint x="160" y="325" as="sourcePoint" />
            <mxPoint x="140" y="325" as="targetPoint" />
          </mxGeometry>
        </mxCell>
        <mxCell id="6Rvpr4Aw8WOLAFPru28n-88" style="edgeStyle=orthogonalEdgeStyle;rounded=0;orthogonalLoop=1;jettySize=auto;html=1;exitX=0.5;exitY=1;exitDx=0;exitDy=0;entryX=0.5;entryY=0;entryDx=0;entryDy=0;endArrow=none;endFill=0;" edge="1" parent="1" source="6Rvpr4Aw8WOLAFPru28n-89">
          <mxGeometry relative="1" as="geometry">
            <mxPoint x="180" y="315" as="targetPoint" />
          </mxGeometry>
        </mxCell>
        <mxCell id="6Rvpr4Aw8WOLAFPru28n-89" value="" style="ellipse;whiteSpace=wrap;html=1;aspect=fixed;fillColor=#000000;" vertex="1" parent="1">
          <mxGeometry x="175" y="285" width="10" height="10" as="geometry" />
        </mxCell>
        <mxCell id="6Rvpr4Aw8WOLAFPru28n-90" value="id_medico" style="text;html=1;align=center;verticalAlign=middle;resizable=0;points=[];autosize=1;strokeColor=none;fillColor=none;" vertex="1" parent="1">
          <mxGeometry x="140" y="255" width="80" height="30" as="geometry" />
        </mxCell>
        <mxCell id="6Rvpr4Aw8WOLAFPru28n-91" value="" style="ellipse;whiteSpace=wrap;html=1;aspect=fixed;direction=west;" vertex="1" parent="1">
          <mxGeometry x="216" y="64.99999999999997" width="10" height="10" as="geometry" />
        </mxCell>
        <mxCell id="6Rvpr4Aw8WOLAFPru28n-97" value="telefonos" style="text;html=1;align=center;verticalAlign=middle;resizable=0;points=[];autosize=1;strokeColor=none;fillColor=none;" vertex="1" parent="1">
          <mxGeometry x="150" y="44.999999999999915" width="70" height="30" as="geometry" />
        </mxCell>
        <mxCell id="6Rvpr4Aw8WOLAFPru28n-99" style="edgeStyle=orthogonalEdgeStyle;rounded=0;orthogonalLoop=1;jettySize=auto;html=1;exitX=0.5;exitY=0;exitDx=0;exitDy=0;entryX=0.5;entryY=0;entryDx=0;entryDy=0;" edge="1" parent="1" target="6Rvpr4Aw8WOLAFPru28n-100">
          <mxGeometry relative="1" as="geometry">
            <mxPoint x="292" y="270" as="targetPoint" />
            <mxPoint x="267" y="315" as="sourcePoint" />
          </mxGeometry>
        </mxCell>
        <mxCell id="6Rvpr4Aw8WOLAFPru28n-100" value="" style="ellipse;whiteSpace=wrap;html=1;aspect=fixed;direction=west;" vertex="1" parent="1">
          <mxGeometry x="263" y="280" width="10" height="10" as="geometry" />
        </mxCell>
        <mxCell id="6Rvpr4Aw8WOLAFPru28n-101" value="telefono" style="text;html=1;align=center;verticalAlign=middle;resizable=0;points=[];autosize=1;strokeColor=none;fillColor=none;" vertex="1" parent="1">
          <mxGeometry x="235" y="254.9999999999999" width="70" height="30" as="geometry" />
        </mxCell>
        <mxCell id="6Rvpr4Aw8WOLAFPru28n-102" style="rounded=0;orthogonalLoop=1;jettySize=auto;html=1;exitX=0.5;exitY=1;exitDx=0;exitDy=0;entryX=0.792;entryY=1.005;entryDx=0;entryDy=0;endArrow=none;endFill=0;entryPerimeter=0;" edge="1" source="6Rvpr4Aw8WOLAFPru28n-103" parent="1">
          <mxGeometry relative="1" as="geometry">
            <mxPoint x="180.03999999999996" y="375.00000000000006" as="targetPoint" />
          </mxGeometry>
        </mxCell>
        <mxCell id="6Rvpr4Aw8WOLAFPru28n-103" value="" style="ellipse;whiteSpace=wrap;html=1;aspect=fixed;" vertex="1" parent="1">
          <mxGeometry x="175" y="394.7" width="10" height="10" as="geometry" />
        </mxCell>
        <mxCell id="6Rvpr4Aw8WOLAFPru28n-104" value="recidencia" style="text;html=1;align=center;verticalAlign=middle;resizable=0;points=[];autosize=1;strokeColor=none;fillColor=none;rotation=-90;" vertex="1" parent="1">
          <mxGeometry x="140" y="414.7" width="80" height="30" as="geometry" />
        </mxCell>
      </root>
    </mxGraphModel>
  </diagram>
</mxfile>
